Coordinates
version=1
nRows=21
nColumns=33
inDegrees=yes

Units are S.I. units (second, meters, Newtons, ...)
Angles are in degrees.

endheader
time	ground_thorax_rot_x	ground_thorax_rot_y	ground_thorax_rot_z	ground_thorax_tx	ground_thorax_ty	ground_thorax_tz	clav_prot_r	clav_elev_r	scapula_abduction_r	scapula_elevation_r	scapula_upward_rot_r	scapula_winging_r	shoulder_elv_r	plane_of_elev_r	axial_rot_r	elbow_flexion_r	pro_sup_r	wrist_flex_r	wrist_dev_r	clav_prot_l	clav_elev_l	scapula_abduction_l	scapula_elevation_l	scapula_upward_rot_l	scapula_winging_l	shoulder_elv_l	plane_of_elev_l	axial_rot_l	elbow_flexion_l	pro_sup_l	wrist_flex_l	wrist_dev_l
      2.51000000	      2.64838619	     -1.41114966	    -13.38433009	     -0.03500475	      1.04809320	      0.00203181	    -11.76611254	     -7.17113844	     -9.22034193	     -2.22938842	      9.75107343	     -0.76401883	     57.34708319	    -47.58226840	     59.78289942	     71.64710589	     10.84289764	     17.23733505	     11.00745002	     -6.93017858	     -5.88118605	      5.62128873	     -2.74429058	     -3.92283858	     -1.46546061	     59.50841932	    -53.10998458	    -46.18682751	     69.62827880	      4.09543470	     -3.56511912	    -24.99999983
      2.52000000	      2.67240006	     -1.45557732	    -12.96063098	     -0.03581407	      1.04807053	      0.00210050	    -11.63708220	     -6.68297792	     -8.96928862	     -1.86386894	      9.98259592	     -1.02466842	     58.18942978	    -47.52714564	     60.66339992	     72.97422407	     11.09189705	     17.40096135	     11.49644997	     -6.84831240	     -5.50682783	      5.46883660	     -3.00990732	     -3.71471693	     -1.29601698	     59.77786564	    -53.32787886	    -46.81737517	     70.46938595	      3.60116158	     -3.60580165	    -24.99999983
      2.53000000	      2.75214501	     -1.55044110	    -12.82076336	     -0.03621340	      1.04824717	      0.00214079	    -11.64083107	     -6.54669320	     -8.89209148	     -1.80964012	     10.19039432	     -1.12120651	     59.48581751	    -47.35379080	     61.60218669	     74.54888239	     11.52637690	     17.32634918	     12.32144112	     -6.92220251	     -5.44149953	      5.49899518	     -2.95264034	     -3.40407204	     -1.23524271	     60.08150573	    -53.62649366	    -47.43606041	     71.41353975	      2.55044822	     -3.81205889	    -24.99999983
      2.54000000	      2.69853354	     -1.51727430	    -13.08117251	     -0.03612805	      1.04892858	      0.00214372	    -11.86876774	     -7.14546155	     -9.41243623	     -2.20578143	      9.73568695	     -0.74994113	     61.43136885	    -46.78689318	     62.33746019	     76.28421975	     12.23282564	     16.92317645	     13.17264611	     -7.14990306	     -5.65249424	      5.71009734	     -2.60343431	     -2.99329172	     -1.27297031	     60.89267883	    -53.77994458	    -48.51879356	     72.44151660	      0.20896128	     -4.17860036	    -24.99999983
      2.55000000	      2.60865207	     -1.52671301	    -12.91008400	     -0.03674159	      1.04884866	      0.00214287	    -11.81665249	     -6.80507609	     -9.26076871	     -1.97795073	      9.97648151	     -0.94391070	     61.82918862	    -46.50962523	     62.65613287	     77.32981544	     12.22383985	     17.23574571	     13.31209788	     -7.08690133	     -5.26819472	      5.58678543	     -2.87058722	     -2.76582147	     -1.10427355	     61.15465308	    -53.73924113	    -48.73415938	     73.47236893	     -0.05370878	     -4.20216979	    -24.99999983
      2.56000000	      2.53549440	     -1.50937073	    -13.02245853	     -0.03715668	      1.04885272	      0.00218809	    -11.81432201	     -6.60598551	     -9.11905925	     -1.90738112	     10.30936136	     -1.09622440	     62.06160839	    -46.25767571	     62.65024807	     78.34657736	     12.16464498	     17.49724698	     13.35997640	     -7.07984155	     -5.06367324	      5.49693537	     -2.94217276	     -2.45531237	     -0.98033905	     61.35239392	    -53.58117461	    -48.68022512	     74.47146158	     -0.17600473	     -4.26337199	    -24.99999983
      2.57000000	      2.67303368	     -1.53003616	    -12.90045412	     -0.03735723	      1.04933678	      0.00212030	    -11.87381141	     -6.67736830	     -9.10025848	     -2.03768674	     10.51065258	     -1.10476858	     63.40295313	    -46.08038766	     63.23269611	     79.75021860	     12.64097913	     17.63990638	     14.71358497	     -7.10642493	     -5.18696476	      5.42501301	     -2.74158159	     -2.21392796	     -0.96212472	     61.60274381	    -53.77473131	    -49.10303176	     75.45377657	     -1.86573167	     -4.52527848	    -24.99999983
      2.58000000	      2.55503718	     -1.47898491	    -12.91781746	     -0.03771894	      1.04940212	      0.00210813	    -11.85847943	     -6.50170487	     -8.95742519	     -1.97078514	     10.79348434	     -1.24034470	     63.55510374	    -45.81690455	     63.20809995	     80.66051636	     12.57392655	     17.86552932	     14.70586859	     -7.11028300	     -4.98959539	      5.34217924	     -2.79878148	     -1.88174653	     -0.83698009	     61.82263119	    -53.58328629	    -49.00772105	     76.44989630	     -1.97654286	     -4.57635695	    -24.99999983
      2.59000000	      2.47449811	     -1.44358633	    -12.87965055	     -0.03807549	      1.04949006	      0.00203252	    -11.84369195	     -6.32691020	     -8.80256820	     -1.91101461	     11.09534299	     -1.37809494	     63.76134326	    -45.55583210	     63.21451983	     81.53973499	     12.52206740	     18.08020104	     14.75554267	     -7.11442154	     -4.82129768	      5.26157243	     -2.83876735	     -1.57241523	     -0.72529392	     61.98365406	    -53.37462376	    -48.90806329	     77.47600337	     -2.12347408	     -4.63028499	    -24.99999983
      2.60000000	      2.61602921	     -1.51684908	    -12.73450701	     -0.03838494	      1.04986662	      0.00192807	    -11.79992098	     -6.31268807	     -8.62436654	     -1.95698609	     11.28698082	     -1.43752990	     64.87650493	    -45.24085731	     63.63732473	     82.81162060	     12.76876253	     18.03999958	     15.82260837	     -7.10463375	     -4.92211071	      5.20035522	     -2.72645527	     -1.51423901	     -0.72862109	     61.98417956	    -53.25114182	    -48.81934757	     78.30444365	     -4.11906880	     -4.72376935	    -24.99999983
      2.61000000	      2.49298681	     -1.45129903	    -12.66628904	     -0.03864212	      1.04997909	      0.00189190	    -11.79309936	     -6.18907564	     -8.49658067	     -1.92838722	     11.54484936	     -1.54606623	     64.98907096	    -44.98305380	     63.57186450	     83.61611526	     12.67897817	     18.22380213	     15.79349567	     -7.12937761	     -4.80652943	      5.13364133	     -2.70837069	     -1.17886334	     -0.63040295	     62.16421690	    -52.97866111	    -48.65292170	     79.25790032	     -4.24883042	     -4.75745340	    -24.99999983
      2.62000000	      2.40195352	     -1.39268832	    -12.59750077	     -0.03890347	      1.05011617	      0.00181024	    -11.77144408	     -6.07551908	     -8.33461761	     -1.91116616	     11.81315586	     -1.65521257	     65.13899791	    -44.70034120	     63.53190085	     84.38663279	     12.58528119	     18.38168649	     15.80523373	     -7.15200539	     -4.75273742	      5.05914491	     -2.64359025	     -0.86774042	     -0.54925215	     62.28424534	    -52.64218657	    -48.42995658	     80.13583207	     -4.42450990	     -4.78353296	    -24.99999983
      2.63000000	      2.33509967	     -1.34176466	    -12.52725438	     -0.03912990	      1.05023350	      0.00173023	    -11.74788180	     -5.97201490	     -8.16254356	     -1.90482338	     12.08863424	     -1.76263367	     65.31058538	    -44.40787883	     63.49259900	     85.14756253	     12.47402505	     18.51195515	     15.84017560	     -7.18133469	     -4.74938427	      4.99301239	     -2.54089591	     -0.57730921	     -0.48709596	     62.34668740	    -52.25192463	    -48.12894200	     80.94341696	     -4.65638970	     -4.79541574	    -24.99999983
      2.64000000	      2.44463811	     -1.40601971	    -12.32142879	     -0.03963625	      1.05024077	      0.00153084	    -11.60279980	     -5.76886742	     -7.87664763	     -1.76152236	     12.22311898	     -1.89649732	     65.96964165	    -43.91761029	     63.71106435	     86.13630174	     11.60376524	     17.89561677	     16.47657221	     -7.06843490	     -4.62010761	      4.89823193	     -2.73105183	     -0.77223435	     -0.46673956	     61.77510714	    -51.52029832	    -46.97540752	     81.42488328	     -7.33302480	     -3.95830692	    -24.99999983
      2.65000000	      2.34988898	     -1.29800473	    -12.29085903	     -0.03983539	      1.05040973	      0.00146245	    -11.58682736	     -5.75298985	     -7.72223743	     -1.81917433	     12.45555325	     -1.96155783	     66.03481723	    -43.64045559	     63.52751555	     86.77359397	     11.46031044	     18.03336327	     16.41273980	     -7.07923639	     -4.71481545	      4.75839738	     -2.52299925	     -0.43373268	     -0.40810148	     61.88419406	    -51.03430533	    -46.73133902	     82.08428204	     -7.47673006	     -3.95734972	    -24.99950176
      2.66000000	      2.30283025	     -1.17668498	    -12.29823467	     -0.04022024	      1.05038557	      0.00135080	    -11.62929379	     -5.67112206	     -7.70075205	     -1.81121443	     12.65671633	     -2.03158425	     66.04485461	    -43.10788039	     63.33034875	     87.35487708	     10.37340607	     17.75571978	     16.44278050	     -6.93178559	     -4.57539064	      4.49546313	     -2.62819393	     -0.36606534	     -0.30786495	     61.38079880	    -50.08885986	    -45.56862689	     82.65533894	     -9.22495285	     -3.27690582	    -23.81331234
      2.67000000	      2.22573116	     -1.03240154	    -12.17987253	     -0.04042093	      1.05049535	      0.00127538	    -11.61037183	     -5.66891197	     -7.55797757	     -1.86907769	     12.85291656	     -2.08333882	     66.09850597	    -42.86494084	     63.12454842	     87.88781294	     10.20669924	     17.84848100	     16.37875419	     -6.91435176	     -4.71439365	      4.30514716	     -2.39129578	     -0.05438397	     -0.25645418	     61.44780700	    -49.53749804	    -45.30548951	     83.17759784	     -9.36860971	     -3.25813660	    -23.80884750
      2.68000000	      2.12277810	     -0.71539289	    -12.13060694	     -0.04103620	      1.05031174	      0.00107633	    -11.71021563	     -5.58390314	     -7.69114721	     -1.83068047	     12.95790686	     -2.12078210	     65.86051496	    -42.35361064	     62.69701822	     88.26574219	      8.79622830	     17.40928697	     16.30169688	     -6.49130471	     -4.39541903	      3.63848856	     -2.71026337	     -0.11329981	     -0.04100593	     60.77174706	    -48.31536034	    -43.76723097	     83.67499361	    -11.07151843	     -2.54612926	    -21.79078477
      2.69000000	      2.01840632	     -0.39511608	    -12.03751558	     -0.04147903	      1.05024687	      0.00104979	    -11.84106189	     -5.56351063	     -7.88933330	     -1.83702681	     13.01905967	     -2.11674648	     65.61449866	    -41.86777088	     62.23455557	     88.55835007	      7.38408124	     17.18524265	     16.23638258	     -6.10531643	     -4.30799387	      2.90495841	     -2.74781786	      0.02669864	      0.16315572	     60.34334901	    -47.43468862	    -42.66716438	     83.99477939	    -12.23437591	     -2.06852373	    -20.68340991
      2.70000000	      1.95997950	     -0.28352580	    -11.96891944	     -0.04172272	      1.05045827	      0.00105368	    -11.80386381	     -5.69167444	     -7.69951196	     -2.00166115	     13.19295188	     -2.12078126	     65.60746230	    -41.52646357	     61.90491420	     88.90450113	      7.17284376	     17.21723620	     16.13260724	     -6.04583977	     -4.59657876	      2.62935317	     -2.39722083	      0.28508701	      0.18557213	     60.33265913	    -46.72799626	    -42.30730624	     84.08225731	    -12.39462991	     -2.06694644	    -20.52754941
      2.71000000	      1.85438355	     -0.06819531	    -11.87684817	     -0.04230131	      1.05005657	      0.00077914	    -11.83966873	     -5.53619464	     -7.80675508	     -1.85954222	     13.17059904	     -2.16477720	     65.12430080	    -40.75957023	     61.20251104	     88.96769340	      5.52432348	     16.69869834	     15.85825972	     -5.65674096	     -4.27830663	      2.07518232	     -2.75813402	      0.10006222	      0.36606641	     59.50079136	    -45.27387852	    -40.50372963	     84.21548615	    -13.86753302	     -1.50414091	    -18.45925306
